v 0.12 0.06 0.0
v 0.10392304845413264 0.06 0.05999999999999999
v 0.06000000000000001 0.06 0.10392304845413262
v 7.347880794884118e-18 0.06 0.12
v -0.05999999999999997 0.06 0.10392304845413264
v -0.10392304845413264 0.06 0.05999999999999999
v -0.12 0.06 1.4695761589768237e-17
v -0.10392304845413265 0.06 -0.05999999999999996
v -0.06000000000000005 0.06 -0.1039230484541326
v -2.2043642384652355e-17 0.06 -0.12
v 0.06000000000000001 0.06 -0.10392304845413262
v 0.1039230484541326 0.06 -0.06000000000000005
v 0.108 0.049999999999999996 0.0
v 0.09353074360871938 0.049999999999999996 0.05399999999999999
v 0.05400000000000001 0.049999999999999996 0.09353074360871937
v 6.613092715395707e-18 0.049999999999999996 0.108
v -0.05399999999999998 0.049999999999999996 0.09353074360871938
v -0.09353074360871938 0.049999999999999996 0.05399999999999999
v -0.108 0.049999999999999996 1.3226185430791415e-17
v -0.0935307436087194 0.049999999999999996 -0.05399999999999997
v -0.05400000000000005 0.049999999999999996 -0.09353074360871934
v -1.983927814618712e-17 0.049999999999999996 -0.108
v 0.05400000000000001 0.049999999999999996 -0.09353074360871937
v 0.09353074360871934 0.049999999999999996 -0.05400000000000005
v 0.096 0.039999999999999994 0.0
v 0.08313843876330612 0.039999999999999994 0.047999999999999994
v 0.048000000000000015 0.039999999999999994 0.08313843876330611
v 5.8783046359072955e-18 0.039999999999999994 0.096
v -0.04799999999999998 0.039999999999999994 0.08313843876330612
v -0.08313843876330612 0.039999999999999994 0.047999999999999994
v -0.096 0.039999999999999994 1.1756609271814591e-17
v -0.08313843876330612 0.039999999999999994 -0.04799999999999997
v -0.04800000000000004 0.039999999999999994 -0.08313843876330608
v -1.7634913907721884e-17 0.039999999999999994 -0.096
v 0.048000000000000015 0.039999999999999994 -0.08313843876330611
v 0.08313843876330608 0.039999999999999994 -0.04800000000000004
v 0.08399999999999999 0.03 0.0
v 0.07274613391789285 0.03 0.04199999999999999
v 0.042 0.03 0.07274613391789284
v 5.143516556418883e-18 0.03 0.08399999999999999
v -0.041999999999999975 0.03 0.07274613391789285
v -0.07274613391789285 0.03 0.04199999999999999
v -0.08399999999999999 0.03 1.0287033112837766e-17
v -0.07274613391789285 0.03 -0.041999999999999975
v -0.04200000000000003 0.03 -0.07274613391789282
v -1.5430549669256647e-17 0.03 -0.08399999999999999
v 0.042 0.03 -0.07274613391789284
v 0.07274613391789282 0.03 -0.04200000000000003
v 0.07200000000000001 0.019999999999999997 0.0
v 0.06235382907247959 0.019999999999999997 0.036
v 0.03600000000000001 0.019999999999999997 0.062353829072479584
v 4.408728476930472e-18 0.019999999999999997 0.07200000000000001
v -0.03599999999999999 0.019999999999999997 0.06235382907247959
v -0.06235382907247959 0.019999999999999997 0.036
v -0.07200000000000001 0.019999999999999997 8.817456953860944e-18
v -0.062353829072479605 0.019999999999999997 -0.03599999999999998
v -0.03600000000000004 0.019999999999999997 -0.06235382907247957
v -1.3226185430791415e-17 0.019999999999999997 -0.07200000000000001
v 0.03600000000000001 0.019999999999999997 -0.062353829072479584
v 0.06235382907247957 0.019999999999999997 -0.03600000000000004
v 0.06 0.009999999999999995 0.0
v 0.05196152422706632 0.009999999999999995 0.029999999999999995
v 0.030000000000000006 0.009999999999999995 0.05196152422706631
v 3.673940397442059e-18 0.009999999999999995 0.06
v -0.029999999999999985 0.009999999999999995 0.05196152422706632
v -0.05196152422706632 0.009999999999999995 0.029999999999999995
v -0.06 0.009999999999999995 7.347880794884118e-18
v -0.051961524227066326 0.009999999999999995 -0.02999999999999998
v -0.030000000000000027 0.009999999999999995 -0.0519615242270663
v -1.1021821192326178e-17 0.009999999999999995 -0.06
v 0.030000000000000006 0.009999999999999995 -0.05196152422706631
v 0.0519615242270663 0.009999999999999995 -0.030000000000000027
v 0.0 0.12 0.0
f 1 2 14 13
f 2 3 15 14
f 3 4 16 15
f 4 5 17 16
f 5 6 18 17
f 6 7 19 18
f 7 8 20 19
f 8 9 21 20
f 9 10 22 21
f 10 11 23 22
f 11 12 24 23
f 12 1 13 24
f 13 14 26 25
f 14 15 27 26
f 15 16 28 27
f 16 17 29 28
f 17 18 30 29
f 18 19 31 30
f 19 20 32 31
f 20 21 33 32
f 21 22 34 33
f 22 23 35 34
f 23 24 36 35
f 24 13 25 36
f 25 26 38 37
f 26 27 39 38
f 27 28 40 39
f 28 29 41 40
f 29 30 42 41
f 30 31 43 42
f 31 32 44 43
f 32 33 45 44
f 33 34 46 45
f 34 35 47 46
f 35 36 48 47
f 36 25 37 48
f 37 38 50 49
f 38 39 51 50
f 39 40 52 51
f 40 41 53 52
f 41 42 54 53
f 42 43 55 54
f 43 44 56 55
f 44 45 57 56
f 45 46 58 57
f 46 47 59 58
f 47 48 60 59
f 48 37 49 60
f 49 50 62 61
f 50 51 63 62
f 51 52 64 63
f 52 53 65 64
f 53 54 66 65
f 54 55 67 66
f 55 56 68 67
f 56 57 69 68
f 57 58 70 69
f 58 59 71 70
f 59 60 72 71
f 60 49 61 72
f 61 62 73
f 62 63 73
f 63 64 73
f 64 65 73
f 65 66 73
f 66 67 73
f 67 68 73
f 68 69 73
f 69 70 73
f 70 71 73
f 71 72 73
f 72 61 73