v -0.14 0.02 0.020000000000000004
v -0.12250000000000001 0.02 0.02115288317580618
v -0.10500000000000001 0.02 0.0245672280493228
v -0.08750000000000001 0.02 0.03011182326184729
v -0.07 0.02 0.037573593128807155
v -0.052500000000000005 0.02 0.046665786018823874
v -0.035 0.02 0.057038994058094615
v -0.0175 0.02 0.06829458067903231
v 0.0 0.02 0.08
v 0.0175 0.02 0.0917054193209677
v 0.035 0.02 0.10296100594190538
v 0.052500000000000005 0.02 0.11333421398117613
v 0.07 0.02 0.12242640687119286
v 0.08750000000000001 0.02 0.12988817673815273
v 0.10500000000000001 0.02 0.1354327719506772
v 0.12250000000000001 0.02 0.13884711682419382
v 0.14 0.02 0.14
v -0.14 0.013333333333333334 0.020000000000000004
v -0.12250000000000001 0.013333333333333334 0.02115288317580618
v -0.10500000000000001 0.013333333333333334 0.0245672280493228
v -0.08750000000000001 0.013333333333333334 0.03011182326184729
v -0.07 0.013333333333333334 0.037573593128807155
v -0.052500000000000005 0.013333333333333334 0.046665786018823874
v -0.035 0.013333333333333334 0.057038994058094615
v -0.0175 0.013333333333333334 0.06829458067903231
v 0.0 0.013333333333333334 0.08
v 0.0175 0.013333333333333334 0.0917054193209677
v 0.035 0.013333333333333334 0.10296100594190538
v 0.052500000000000005 0.013333333333333334 0.11333421398117613
v 0.07 0.013333333333333334 0.12242640687119286
v 0.08750000000000001 0.013333333333333334 0.12988817673815273
v 0.10500000000000001 0.013333333333333334 0.1354327719506772
v 0.12250000000000001 0.013333333333333334 0.13884711682419382
v 0.14 0.013333333333333334 0.14
v -0.14 0.006666666666666668 0.020000000000000004
v -0.12250000000000001 0.006666666666666668 0.02115288317580618
v -0.10500000000000001 0.006666666666666668 0.0245672280493228
v -0.08750000000000001 0.006666666666666668 0.03011182326184729
v -0.07 0.006666666666666668 0.037573593128807155
v -0.052500000000000005 0.006666666666666668 0.046665786018823874
v -0.035 0.006666666666666668 0.057038994058094615
v -0.0175 0.006666666666666668 0.06829458067903231
v 0.0 0.006666666666666668 0.08
v 0.0175 0.006666666666666668 0.0917054193209677
v 0.035 0.006666666666666668 0.10296100594190538
v 0.052500000000000005 0.006666666666666668 0.11333421398117613
v 0.07 0.006666666666666668 0.12242640687119286
v 0.08750000000000001 0.006666666666666668 0.12988817673815273
v 0.10500000000000001 0.006666666666666668 0.1354327719506772
v 0.12250000000000001 0.006666666666666668 0.13884711682419382
v 0.14 0.006666666666666668 0.14
v -0.14 0.0 0.020000000000000004
v -0.12250000000000001 0.0 0.02115288317580618
v -0.10500000000000001 0.0 0.0245672280493228
v -0.08750000000000001 0.0 0.03011182326184729
v -0.07 0.0 0.037573593128807155
v -0.052500000000000005 0.0 0.046665786018823874
v -0.035 0.0 0.057038994058094615
v -0.0175 0.0 0.06829458067903231
v 0.0 0.0 0.08
v 0.0175 0.0 0.0917054193209677
v 0.035 0.0 0.10296100594190538
v 0.052500000000000005 0.0 0.11333421398117613
v 0.07 0.0 0.12242640687119286
v 0.08750000000000001 0.0 0.12988817673815273
v 0.10500000000000001 0.0 0.1354327719506772
v 0.12250000000000001 0.0 0.13884711682419382
v 0.14 0.0 0.14
v -0.14 -0.0066666666666666645 0.020000000000000004
v -0.12250000000000001 -0.0066666666666666645 0.02115288317580618
v -0.10500000000000001 -0.0066666666666666645 0.0245672280493228
v -0.08750000000000001 -0.0066666666666666645 0.03011182326184729
v -0.07 -0.0066666666666666645 0.037573593128807155
v -0.052500000000000005 -0.0066666666666666645 0.046665786018823874
v -0.035 -0.0066666666666666645 0.057038994058094615
v -0.0175 -0.0066666666666666645 0.06829458067903231
v 0.0 -0.0066666666666666645 0.08
v 0.0175 -0.0066666666666666645 0.0917054193209677
v 0.035 -0.0066666666666666645 0.10296100594190538
v 0.052500000000000005 -0.0066666666666666645 0.11333421398117613
v 0.07 -0.0066666666666666645 0.12242640687119286
v 0.08750000000000001 -0.0066666666666666645 0.12988817673815273
v 0.10500000000000001 -0.0066666666666666645 0.1354327719506772
v 0.12250000000000001 -0.0066666666666666645 0.13884711682419382
v 0.14 -0.0066666666666666645 0.14
v -0.14 -0.013333333333333332 0.020000000000000004
v -0.12250000000000001 -0.013333333333333332 0.02115288317580618
v -0.10500000000000001 -0.013333333333333332 0.0245672280493228
v -0.08750000000000001 -0.013333333333333332 0.03011182326184729
v -0.07 -0.013333333333333332 0.037573593128807155
v -0.052500000000000005 -0.013333333333333332 0.046665786018823874
v -0.035 -0.013333333333333332 0.057038994058094615
v -0.0175 -0.013333333333333332 0.06829458067903231
v 0.0 -0.013333333333333332 0.08
v 0.0175 -0.013333333333333332 0.0917054193209677
v 0.035 -0.013333333333333332 0.10296100594190538
v 0.052500000000000005 -0.013333333333333332 0.11333421398117613
v 0.07 -0.013333333333333332 0.12242640687119286
v 0.08750000000000001 -0.013333333333333332 0.12988817673815273
v 0.10500000000000001 -0.013333333333333332 0.1354327719506772
v 0.12250000000000001 -0.013333333333333332 0.13884711682419382
v 0.14 -0.013333333333333332 0.14
v -0.14 -0.02 0.020000000000000004
v -0.12250000000000001 -0.02 0.02115288317580618
v -0.10500000000000001 -0.02 0.0245672280493228
v -0.08750000000000001 -0.02 0.03011182326184729
v -0.07 -0.02 0.037573593128807155
v -0.052500000000000005 -0.02 0.046665786018823874
v -0.035 -0.02 0.057038994058094615
v -0.0175 -0.02 0.06829458067903231
v 0.0 -0.02 0.08
v 0.0175 -0.02 0.0917054193209677
v 0.035 -0.02 0.10296100594190538
v 0.052500000000000005 -0.02 0.11333421398117613
v 0.07 -0.02 0.12242640687119286
v 0.08750000000000001 -0.02 0.12988817673815273
v 0.10500000000000001 -0.02 0.1354327719506772
v 0.12250000000000001 -0.02 0.13884711682419382
v 0.14 -0.02 0.14
f 1 2 19 18
f 2 3 20 19
f 3 4 21 20
f 4 5 22 21
f 5 6 23 22
f 6 7 24 23
f 7 8 25 24
f 8 9 26 25
f 9 10 27 26
f 10 11 28 27
f 11 12 29 28
f 12 13 30 29
f 13 14 31 30
f 14 15 32 31
f 15 16 33 32
f 16 17 34 33
f 18 19 36 35
f 19 20 37 36
f 20 21 38 37
f 21 22 39 38
f 22 23 40 39
f 23 24 41 40
f 24 25 42 41
f 25 26 43 42
f 26 27 44 43
f 27 28 45 44
f 28 29 46 45
f 29 30 47 46
f 30 31 48 47
f 31 32 49 48
f 32 33 50 49
f 33 34 51 50
f 35 36 53 52
f 36 37 54 53
f 37 38 55 54
f 38 39 56 55
f 39 40 57 56
f 40 41 58 57
f 41 42 59 58
f 42 43 60 59
f 43 44 61 60
f 44 45 62 61
f 45 46 63 62
f 46 47 64 63
f 47 48 65 64
f 48 49 66 65
f 49 50 67 66
f 50 51 68 67
f 52 53 70 69
f 53 54 71 70
f 54 55 72 71
f 55 56 73 72
f 56 57 74 73
f 57 58 75 74
f 58 59 76 75
f 59 60 77 76
f 60 61 78 77
f 61 62 79 78
f 62 63 80 79
f 63 64 81 80
f 64 65 82 81
f 65 66 83 82
f 66 67 84 83
f 67 68 85 84
f 69 70 87 86
f 70 71 88 87
f 71 72 89 88
f 72 73 90 89
f 73 74 91 90
f 74 75 92 91
f 75 76 93 92
f 76 77 94 93
f 77 78 95 94
f 78 79 96 95
f 79 80 97 96
f 80 81 98 97
f 81 82 99 98
f 82 83 100 99
f 83 84 101 100
f 84 85 102 101
f 86 87 104 103
f 87 88 105 104
f 88 89 106 105
f 89 90 107 106
f 90 91 108 107
f 91 92 109 108
f 92 93 110 109
f 93 94 111 110
f 94 95 112 111
f 95 96 113 112
f 96 97 114 113
f 97 98 115 114
f 98 99 116 115
f 99 100 117 116
f 100 101 118 117
f 101 102 119 118