<?xml version="1.0" encoding="UTF-8"?>
<svg version="1.1" xmlns="http://www.w3.org/2000/svg" width="256" height="256">
<path d="M0 0 C84.48 0 168.96 0 256 0 C256 84.48 256 168.96 256 256 C171.52 256 87.04 256 0 256 C0 171.52 0 87.04 0 0 Z " fill="#0E0D0D" transform="translate(0,0)"/>
<path d="M0 0 C0.87662292 -0.0065712 1.75324585 -0.0131424 2.65643311 -0.01991272 C5.566285 -0.039671 8.47608518 -0.05131525 11.38598633 -0.0612793 C12.3793783 -0.06535482 13.37277027 -0.06943035 14.39626503 -0.07362938 C19.65626443 -0.09450303 24.91623765 -0.10879794 30.17626953 -0.11816406 C35.6058458 -0.12921834 41.03501109 -0.16360334 46.46444225 -0.20333576 C50.64153293 -0.22950477 54.81852586 -0.23785627 58.9956913 -0.24144554 C60.99672527 -0.24631243 62.99775485 -0.2579293 64.99870872 -0.27648354 C67.80415554 -0.30087598 70.60854172 -0.29990947 73.4140625 -0.29296875 C74.64797478 -0.31218384 74.64797478 -0.31218384 75.90681458 -0.33178711 C81.56062128 -0.28096116 84.8796361 0.92026328 89.53051758 4.17700195 C90.81060776 6.73718231 90.68558881 8.59865476 90.72338867 11.46533203 C90.7394516 12.57020462 90.75551453 13.67507721 90.77206421 14.81343079 C90.81643793 19.86861619 90.85757559 24.9236694 90.88061523 29.97900391 C90.89395045 32.64791756 90.9244756 35.31502382 90.96264648 37.98388672 C91.01733109 41.82583708 91.03927745 45.66674639 91.05395508 49.5090332 C91.07662445 50.70188431 91.09929382 51.89473541 91.12265015 53.12373352 C91.10147409 61.40330939 91.10147409 61.40330939 88.16186523 65.38671875 C84.54235592 67.84931495 81.93549168 69.17700195 77.53051758 69.17700195 C77.53051758 78.74700195 77.53051758 88.31700195 77.53051758 98.17700195 C74.23051758 98.17700195 70.93051758 98.17700195 67.53051758 98.17700195 C67.53051758 106.75700195 67.53051758 115.33700195 67.53051758 124.17700195 C54.99051758 124.17700195 42.45051758 124.17700195 29.53051758 124.17700195 C28.87051758 122.52700195 28.21051758 120.87700195 27.53051758 119.17700195 C25.55051758 119.17700195 23.57051758 119.17700195 21.53051758 119.17700195 C21.20051758 120.82700195 20.87051758 122.47700195 20.53051758 124.17700195 C12.61051758 124.17700195 4.69051758 124.17700195 -3.46948242 124.17700195 C-2.08651383 120.02809617 -0.86876183 116.76634223 1.13208008 112.99731445 C1.62192383 112.06918945 2.11176758 111.14106445 2.61645508 110.18481445 C3.37829102 108.75782227 3.37829102 108.75782227 4.15551758 107.30200195 C4.92895508 105.84020508 4.92895508 105.84020508 5.71801758 104.34887695 C6.98478461 101.95609478 8.25710233 99.56625264 9.53051758 97.17700195 C5.90051758 97.17700195 2.27051758 97.17700195 -1.46948242 97.17700195 C0.04863008 92.07062354 2.29058937 87.49378421 4.70239258 82.76293945 C5.82165262 80.23242461 5.82165262 80.23242461 4.64770508 78.07543945 C4.2790332 77.44895508 3.91036133 76.8224707 3.53051758 76.17700195 C3.90551758 72.42700195 3.90551758 72.42700195 4.53051758 69.17700195 C3.90145508 69.2234082 3.27239258 69.26981445 2.62426758 69.31762695 C-3.59096988 69.57971528 -8.35936446 68.92191683 -13.46948242 65.17700195 C-15.70071633 61.83015109 -15.73307981 60.68945113 -15.77587891 56.77514648 C-15.7918663 55.67034943 -15.8078537 54.56555237 -15.82432556 53.42727661 C-15.82968826 52.2335141 -15.83505096 51.03975159 -15.84057617 49.80981445 C-15.84960464 48.58293915 -15.85863312 47.35606384 -15.86793518 46.0920105 C-15.88245437 43.49455207 -15.89132854 40.89705693 -15.89501953 38.29956055 C-15.90691513 34.32448734 -15.95608834 30.35096613 -16.0065918 26.3762207 C-16.01605571 23.85409288 -16.02329089 21.3319555 -16.02807617 18.80981445 C-16.04760849 17.6201004 -16.06714081 16.43038635 -16.08726501 15.20462036 C-16.03702298 6.01960979 -16.03702298 6.01960979 -13.05957031 2.94995117 C-8.63422979 -0.0792526 -5.23632815 0.01690823 0 0 Z " fill="#0567BA" transform="translate(90.469482421875,79.822998046875)"/>
<path d="M0 0 C5.05006826 4.01961589 8.75944991 7.94371407 9.7109375 14.4921875 C9.90229012 19.92365797 9.58460586 24.25085445 6.3125 28.75 C-1.70026948 37.11275251 -11.08147404 41.62566319 -22.7109375 42.05078125 C-24.4947376 42.06520904 -26.27865327 42.06896321 -28.0625 42.0625 C-28.94421875 42.07861328 -29.8259375 42.09472656 -30.734375 42.11132812 C-41.88883606 42.11950588 -51.53251913 38.84032771 -59.546875 30.91015625 C-64.14862937 25.72770431 -65.1774613 21.5963205 -65.0859375 14.66796875 C-64.28320315 8.78912011 -61.0603494 4.88461151 -56.7421875 1 C-40.94712565 -10.65687221 -16.40638324 -10.63737311 0 0 Z " fill="#0666B8" transform="translate(155.6875,94.25)"/>
<path d="M0 0 C5.05006826 4.01961589 8.75944991 7.94371407 9.7109375 14.4921875 C9.90229012 19.92365797 9.58460586 24.25085445 6.3125 28.75 C-1.70026948 37.11275251 -11.08147404 41.62566319 -22.7109375 42.05078125 C-24.4947376 42.06520904 -26.27865327 42.06896321 -28.0625 42.0625 C-28.94421875 42.07861328 -29.8259375 42.09472656 -30.734375 42.11132812 C-41.88883606 42.11950588 -51.53251913 38.84032771 -59.546875 30.91015625 C-64.14862937 25.72770431 -65.1774613 21.5963205 -65.0859375 14.66796875 C-64.28320315 8.78912011 -61.0603494 4.88461151 -56.7421875 1 C-40.94712565 -10.65687221 -16.40638324 -10.63737311 0 0 Z M-54.6875 7.75 C-57.78293328 12.19968534 -58.62337657 16.45378944 -57.6875 21.75 C-54.10635986 28.91228027 -48.51491279 33.33041247 -41.125 36.125 C-30.2272918 39.36302066 -18.90453655 38.93777596 -8.6875 33.75 C-4.10893388 30.48818939 0.21115115 27.09793283 2.3125 21.75 C2.81988381 16.59159796 2.69035622 12.92473953 -0.234375 8.4140625 C-5.54794337 2.32916969 -13.58498071 -1.66948192 -21.58154297 -2.43017578 C-34.38712172 -3.26008437 -45.07836564 -1.46739507 -54.6875 7.75 Z " fill="#0E1012" transform="translate(155.6875,94.25)"/>
<path d="M0 0 C2.5625 1.75 2.5625 1.75 4 4 C4.5625 7.4375 4.5625 7.4375 4 11 C1.08803801 14.74395113 -1.54666032 16.54114735 -6 18 C-13.42548981 18.90322859 -19.43357842 18.7262945 -25.609375 14.2890625 C-27.8889393 12.17598323 -28.02323937 10.82404475 -28.4375 7.6875 C-28 4 -28 4 -25.375 1.1875 C-17.28496812 -4.57214799 -8.73117152 -3.91048609 0 0 Z " fill="#0D0F11" transform="translate(140,104)"/>
<path d="M0 0 C3.63 0 7.26 0 11 0 C12.60494203 3.04125976 14.20897799 6.08299163 15.8125 9.125 C16.26431641 9.9809375 16.71613281 10.836875 17.18164062 11.71875 C19.50249765 16.12329618 21.79692907 20.53530477 24 25 C22.54257537 25.08096803 21.08387193 25.13917774 19.625 25.1875 C18.81289062 25.22230469 18.00078125 25.25710937 17.1640625 25.29296875 C16.44992188 25.19628906 15.73578125 25.09960938 15 25 C14.34 24.01 13.68 23.02 13 22 C10.22737745 21.61605333 7.65676472 21.39657752 4.875 21.3125 C4.12089844 21.27833984 3.36679688 21.24417969 2.58984375 21.20898438 C0.72708799 21.12645722 -1.13643326 21.06155289 -3 21 C-3.33 22.32 -3.66 23.64 -4 25 C-6.97 25 -9.94 25 -13 25 C-11.68706289 21.55688942 -10.1856658 18.35788604 -8.3984375 15.13671875 C-7.66367188 13.80737305 -7.66367188 13.80737305 -6.9140625 12.45117188 C-6.40617187 11.53916016 -5.89828125 10.62714844 -5.375 9.6875 C-4.859375 8.75615234 -4.34375 7.82480469 -3.8125 6.86523438 C-2.5442719 4.57537808 -1.27248479 2.28749357 0 0 Z " fill="#0E1013" transform="translate(110,174)"/>
<path d="M0 0 C0.76763672 0.00515625 1.53527344 0.0103125 2.32617188 0.015625 C5.5999625 0.06129252 8.3143544 0.20895147 11.4375 1.25 C11.1075 2.57 10.7775 3.89 10.4375 5.25 C5.4875 5.25 0.5375 5.25 -4.5625 5.25 C-4.8925 5.91 -5.2225 6.57 -5.5625 7.25 C-3.99048828 7.54003906 -3.99048828 7.54003906 -2.38671875 7.8359375 C-1.00774407 8.09859934 0.37115849 8.36164 1.75 8.625 C2.44029297 8.75132812 3.13058594 8.87765625 3.84179688 9.0078125 C7.27453314 9.67114318 9.48996458 10.28497639 12.4375 12.25 C13 15.125 13 15.125 12.4375 18.25 C9.45424401 21.58422728 7.58826754 22.14118037 3.1328125 22.5625 C-2.90071068 22.6645469 -7.8810116 22.41520137 -13.5625 20.25 C-12.9025 18.93 -12.2425 17.61 -11.5625 16.25 C-10.77875 16.415 -9.995 16.58 -9.1875 16.75 C-4.62283858 17.37960847 -0.16177399 17.33180527 4.4375 17.25 C4.4375 16.26 4.4375 15.27 4.4375 14.25 C3.62925781 14.14042969 2.82101563 14.03085938 1.98828125 13.91796875 C0.91964844 13.75941406 -0.14898437 13.60085937 -1.25 13.4375 C-2.83361328 13.21126953 -2.83361328 13.21126953 -4.44921875 12.98046875 C-7.71483319 12.21425808 -9.88852955 11.26523685 -12.5625 9.25 C-13.125 6.25 -13.125 6.25 -12.5625 3.25 C-9.03255381 -0.68441919 -4.89572425 -0.13220521 0 0 Z " fill="#0E1115" transform="translate(114.5625,147.75)"/>
<path d="M0 0 C0.78052734 0.00064453 1.56105469 0.00128906 2.36523438 0.00195312 C8.15634586 0.04692293 8.15634586 0.04692293 10.4375 1.1875 C10.1075 2.5075 9.7775 3.8275 9.4375 5.1875 C7.97376953 5.15269531 7.97376953 5.15269531 6.48046875 5.1171875 C5.20816406 5.09914062 3.93585938 5.08109375 2.625 5.0625 C1.36042969 5.03929687 0.09585938 5.01609375 -1.20703125 4.9921875 C-4.6963024 4.91168082 -4.6963024 4.91168082 -7.5625 7.1875 C-8.22926878 10.64499949 -8.22926878 10.64499949 -7.5625 14.1875 C-4.71852494 16.85911293 -2.88476515 17.1648849 1 17.4375 C3.65811355 17.24418265 5.91555531 16.9945223 8.4375 16.1875 C9.0975 17.5075 9.7575 18.8275 10.4375 20.1875 C2.22646529 22.49235185 -4.8034256 23.37841004 -12.5625 19.1875 C-15.69976626 16.36396037 -16.45416194 14.86160347 -17.125 10.6875 C-16.41800734 6.28843458 -14.96851046 4.9598341 -11.5625 2.1875 C-7.6933371 -0.39194193 -4.4768521 -0.07058937 0 0 Z " fill="#0E1013" transform="translate(150.5625,147.8125)"/>
<path d="M0 0 C2.97 0 5.94 0 9 0 C9 8.25 9 16.5 9 25 C6.03 25 3.06 25 0 25 C0 16.75 0 8.5 0 0 Z " fill="#0D1219" transform="translate(142,174)"/>
<path d="M0 0 C1 1 1 1 1.125 3.5 C1 6 1 6 0 7 C-2.67058851 7.14115161 -5.32432238 7.04247107 -8 7 C-8.33 5.02 -8.66 3.04 -9 1 C-6.01787087 -0.49106457 -3.28390342 -0.11941467 0 0 Z " fill="#0762B1" transform="translate(133,107)"/>
<path d="M0 0 C0 2.64 0 5.28 0 8 C-2.64 8 -5.28 8 -8 8 C-8 5.69 -8 3.38 -8 1 C-5.29120665 -0.35439668 -2.99066732 -0.06501451 0 0 Z " fill="#0859A0" transform="translate(164,68)"/>
<path d="M0 0 C3 0.125 3 0.125 4 1.125 C4.04092937 3.45797433 4.04241723 5.79205225 4 8.125 C1.36 8.125 -1.28 8.125 -4 8.125 C-4.04241723 5.79205225 -4.04092937 3.45797433 -4 1.125 C-3 0.125 -3 0.125 0 0 Z " fill="#0760AD" transform="translate(128,67.875)"/>
<path d="M0 0 C5.75 -0.125 5.75 -0.125 8 1 C8 3.31 8 5.62 8 8 C5.36 8 2.72 8 0 8 C0 5.36 0 2.72 0 0 Z " fill="#085BA2" transform="translate(92,68)"/>
<path d="M0 0 C2.33944736 0.28730055 4.6739143 0.61936779 7 1 C7 3.31 7 5.62 7 8 C4.36 8 1.72 8 -1 8 C-1.04241723 5.66705225 -1.04092937 3.33297433 -1 1 C-0.67 0.67 -0.34 0.34 0 0 Z " fill="#075FAC" transform="translate(109,68)"/>
<path d="M0 0 C3.3 0 6.6 0 10 0 C10 1.98 10 3.96 10 6 C8.52093108 6.02689216 7.04172517 6.04634621 5.5625 6.0625 C4.32693359 6.07990234 4.32693359 6.07990234 3.06640625 6.09765625 C1 6 1 6 0 5 C0 3.35 0 1.7 0 0 Z " fill="#0860AC" transform="translate(58,123)"/>
<path d="M0 0 C3.3 0 6.6 0 10 0 C10 1.98 10 3.96 10 6 C8.52093108 6.02689216 7.04172517 6.04634621 5.5625 6.0625 C4.32693359 6.07990234 4.32693359 6.07990234 3.06640625 6.09765625 C1 6 1 6 0 5 C0 3.35 0 1.7 0 0 Z " fill="#075DA8" transform="translate(58,90)"/>
<path d="M0 0 C2.97 0 5.94 0 9 0 C9.38218767 1.65614657 9.71395102 3.32457024 10 5 C9 6 9 6 6.93359375 6.09765625 C6.10988281 6.08605469 5.28617188 6.07445313 4.4375 6.0625 C3.61121094 6.05347656 2.78492188 6.04445313 1.93359375 6.03515625 C1.29550781 6.02355469 0.65742188 6.01195313 0 6 C0 4.02 0 2.04 0 0 Z " fill="#0761AF" transform="translate(188,112)"/>
<path d="M0 0 C1.23556641 0.01740234 1.23556641 0.01740234 2.49609375 0.03515625 C3.32238281 0.04417969 4.14867188 0.05320312 5 0.0625 C5.63808594 0.07410156 6.27617188 0.08570312 6.93359375 0.09765625 C6.93359375 2.07765625 6.93359375 4.05765625 6.93359375 6.09765625 C3.96359375 6.09765625 0.99359375 6.09765625 -2.06640625 6.09765625 C-2.44859392 4.44150968 -2.78035727 2.77308601 -3.06640625 1.09765625 C-2.06640625 0.09765625 -2.06640625 0.09765625 0 0 Z " fill="#0761AF" transform="translate(61.06640625,111.90234375)"/>
<path d="M0 0 C2.97 0 5.94 0 9 0 C9.38218767 1.65614657 9.71395102 3.32457024 10 5 C9 6 9 6 6.93359375 6.09765625 C6.10988281 6.08605469 5.28617188 6.07445313 4.4375 6.0625 C3.61121094 6.05347656 2.78492188 6.04445313 1.93359375 6.03515625 C1.29550781 6.02355469 0.65742188 6.01195313 0 6 C0 4.02 0 2.04 0 0 Z " fill="#0761AF" transform="translate(188,101)"/>
<path d="M0 0 C1.23556641 0.01740234 1.23556641 0.01740234 2.49609375 0.03515625 C3.32238281 0.04417969 4.14867188 0.05320312 5 0.0625 C5.63808594 0.07410156 6.27617188 0.08570312 6.93359375 0.09765625 C6.93359375 2.07765625 6.93359375 4.05765625 6.93359375 6.09765625 C3.96359375 6.09765625 0.99359375 6.09765625 -2.06640625 6.09765625 C-2.44859392 4.44150968 -2.78035727 2.77308601 -3.06640625 1.09765625 C-2.06640625 0.09765625 -2.06640625 0.09765625 0 0 Z " fill="#0760AD" transform="translate(61.06640625,100.90234375)"/>
<path d="M0 0 C2.64 0 5.28 0 8 0 C8 2.31 8 4.62 8 7 C5.36 7 2.72 7 0 7 C0 4.69 0 2.38 0 0 Z " fill="#0762B0" transform="translate(140,69)"/>
<path d="M0 0 C0.66 0 1.32 0 2 0 C6 6.75 6 6.75 6 9 C2.7 9 -0.6 9 -4 9 C-2.68 6.03 -1.36 3.06 0 0 Z " fill="#0761AE" transform="translate(114,181)"/>
<path d="M0 0 C3.3 0 6.6 0 10 0 C10 1.65 10 3.3 10 5 C6.7 5 3.4 5 0 5 C0 3.35 0 1.7 0 0 Z " fill="#0668BB" transform="translate(188,134)"/>
<path d="M0 0 C3.3 0 6.6 0 10 0 C10 1.65 10 3.3 10 5 C6.7 5 3.4 5 0 5 C0 3.35 0 1.7 0 0 Z " fill="#0667B9" transform="translate(58,134)"/>
<path d="M0 0 C3.3 0 6.6 0 10 0 C10 1.65 10 3.3 10 5 C6.7 5 3.4 5 0 5 C0 3.35 0 1.7 0 0 Z " fill="#0667BA" transform="translate(188,123)"/>
<path d="M0 0 C3.3 0 6.6 0 10 0 C9.67 1.65 9.34 3.3 9 5 C6.03 5 3.06 5 0 5 C0 3.35 0 1.7 0 0 Z " fill="#0666B8" transform="translate(188,91)"/>
</svg>
