<?xml version="1.0" encoding="UTF-8"?>
<svg version="1.1" xmlns="http://www.w3.org/2000/svg" width="1024" height="1536">
<path d="M0 0 C337.92 0 675.84 0 1024 0 C1024 506.88 1024 1013.76 1024 1536 C686.08 1536 348.16 1536 0 1536 C0 1029.12 0 522.24 0 0 Z " fill="#0E0D0D" transform="translate(0,0)"/>
<path d="M0 0 C1.35556395 -0.00302473 2.71112619 -0.00691582 4.06668544 -0.01159257 C7.77240081 -0.02184014 11.47801907 -0.01969904 15.18374228 -0.01541197 C19.18797066 -0.0129388 23.19217601 -0.02196632 27.19639587 -0.02944946 C35.03419734 -0.0421827 42.87196452 -0.04399182 50.70977458 -0.0416492 C57.08340371 -0.03986411 63.45702245 -0.04161978 69.83065033 -0.04587364 C70.73877137 -0.04646883 71.64689241 -0.04706402 72.58253227 -0.04767724 C74.42757696 -0.04888904 76.27262165 -0.05010317 78.11766633 -0.05131962 C95.41167715 -0.06219015 112.70566846 -0.06003515 129.99968037 -0.05393478 C145.80424092 -0.04876774 161.60873979 -0.0600163 177.41328815 -0.07903299 C193.65756994 -0.09842828 209.90182258 -0.10666432 226.14611602 -0.10290974 C235.25950255 -0.10100005 244.37283662 -0.10346251 253.48621368 -0.11762428 C261.24584959 -0.12956072 269.00540074 -0.13091776 276.76503786 -0.11883412 C280.72008643 -0.11296089 284.67498014 -0.11180259 288.63001823 -0.12383652 C292.25850064 -0.134748 295.8866999 -0.13153014 299.51516935 -0.11757483 C301.43279296 -0.11370581 303.35042939 -0.12443194 305.26802278 -0.13587171 C315.88954375 -0.07024552 326.19710009 1.36175375 335.51507568 6.69819641 C336.54632568 7.27440735 337.57757568 7.85061829 338.64007568 8.44429016 C350.27505512 15.79519429 358.43811972 27.17152201 362.51507568 40.26069641 C363.78072184 46.83722873 363.66031823 53.38385185 363.65551758 60.06300354 C363.65997426 62.00206231 363.65997426 62.00206231 363.66452098 63.98029399 C363.67255932 67.5575447 363.67437877 71.13477531 363.67511845 74.71203399 C363.6769745 78.57446689 363.68452451 82.43688949 363.69125366 86.29931641 C363.70481423 94.73945251 363.71085794 103.17958386 363.71526432 111.61972904 C363.71803017 116.89255689 363.72226811 122.16538292 363.72676849 127.43820953 C363.73895738 142.04570017 363.74925797 156.65318935 363.75264359 171.26068497 C363.75286315 172.1949047 363.75308272 173.12912444 363.75330894 174.09165387 C363.75352721 175.02806563 363.75374549 175.96447739 363.75397038 176.92926526 C363.75441385 178.82668893 363.75486041 180.72411259 363.75531006 182.62153625 C363.75553149 183.56271721 363.75575292 184.50389817 363.75598106 185.47359976 C363.75992896 200.72351477 363.77738446 215.973382 363.80066958 231.22327855 C363.82439933 246.89117711 363.83684615 262.55905171 363.8380115 278.22696853 C363.83892726 287.01951054 363.84465479 295.81199025 363.86283112 304.60451508 C363.8782539 312.0912321 363.88333967 319.57786756 363.87509301 327.06459746 C363.87119443 330.88167259 363.87207725 334.69858357 363.88615036 338.51563835 C363.90129258 342.66069485 363.89299957 346.80538372 363.88256836 350.95045471 C363.89465297 352.74537649 363.89465297 352.74537649 363.90698171 354.57655931 C363.8143337 370.34847714 358.24022602 385.50159139 347.15570068 396.94429016 C336.94447179 405.9017735 325.94617688 411.02217955 312.51507568 413.26069641 C312.18507568 469.69069641 311.85507568 526.12069641 311.51507568 584.26069641 C297.98507568 584.26069641 284.45507568 584.26069641 270.51507568 584.26069641 C270.51507568 636.73069641 270.51507568 689.20069641 270.51507568 743.26069641 C220.68507568 743.26069641 170.85507568 743.26069641 119.51507568 743.26069641 C116.54507568 734.68069641 113.57507568 726.10069641 110.51507568 717.26069641 C103.58507568 716.93069641 96.65507568 716.60069641 89.51507568 716.26069641 C89.12320068 717.76632141 88.73132568 719.27194641 88.32757568 720.82319641 C86.99089792 725.72861195 85.48903739 730.56103346 83.89007568 735.38569641 C83.56293579 736.38065125 83.56293579 736.38065125 83.22918701 737.39570618 C81.63891408 742.13685802 81.63891408 742.13685802 80.51507568 743.26069641 C77.59312903 743.35595009 74.69487239 743.38622378 71.77264404 743.3742218 C70.39717155 743.37444084 70.39717155 743.37444084 68.99391174 743.37466431 C65.94755733 743.37396481 62.90126323 743.36617069 59.85491943 743.35835266 C57.74884576 743.35648861 55.64277165 743.35506465 53.53669739 743.35406494 C47.98164685 743.35023872 42.42662228 743.34040755 36.87158203 743.32936096 C31.20782828 743.31914908 25.54407035 743.3145678 19.88031006 743.30952454 C8.75855383 743.29878537 -2.36318309 743.28170771 -13.48492432 743.26069641 C-11.89397692 736.61282752 -10.23658058 730.10729824 -7.87554932 723.69038391 C-7.63257614 723.02404938 -7.38960297 722.35771484 -7.13926697 721.67118835 C-6.61656153 720.23965307 -6.09116954 718.80909625 -5.56326294 717.37947083 C-4.40080744 714.23065241 -3.25251829 711.07671377 -2.10295105 707.923172 C-1.4913761 706.24592235 -0.87911282 704.56892354 -0.26618958 702.89216614 C2.75396348 694.62647367 5.71791252 686.34111475 8.67199707 678.05162048 C9.58457037 675.49107032 10.49817004 672.9308885 11.41204834 670.37080383 C14.7391729 661.04923717 18.06194169 651.72612182 21.38316345 642.40245056 C22.9638817 637.9653575 24.54578021 633.52868545 26.12797642 629.09211922 C27.23555972 625.98616244 28.34232389 622.87991751 29.44796753 619.77326965 C30.69021224 616.28287252 31.93448265 612.79320321 33.17913818 609.30366516 C33.54318253 608.2791777 33.90722687 607.25469025 34.28230286 606.19915771 C36.91233414 598.83452111 39.70553804 591.5654943 42.51507568 584.26069641 C26.34507568 584.26069641 10.17507568 584.26069641 -6.48492432 584.26069641 C-4.23493049 574.13572421 -4.23493049 574.13572421 -2.72003174 569.94502258 C-2.38132553 568.99959091 -2.04261932 568.05415924 -1.69364929 567.08007812 C-1.32957474 566.08136185 -0.96550018 565.08264557 -0.59039307 564.05366516 C-0.20613663 562.98626602 0.17811981 561.91886688 0.57402039 560.81912231 C1.39572651 558.53892057 2.21993651 556.25961982 3.04644775 553.9811554 C4.33703755 550.42210348 5.61982946 546.86032369 6.90081787 543.29780579 C10.78972521 532.49436778 14.71049651 521.70366828 18.69866943 510.93647766 C19.60496712 508.4765688 20.51042096 506.0163512 21.41555786 503.55601501 C22.24889752 501.30440832 23.09608831 499.05834985 23.94403076 496.81221008 C24.44231626 495.46194357 24.93999685 494.1114536 25.43695068 492.76069641 C25.86588623 491.61600891 26.29482178 490.47132141 26.73675537 489.29194641 C28.05125716 484.17248148 26.43647757 480.82566502 24.14007568 476.26069641 C19.13677792 465.45807867 18.02625086 454.74171246 18.14007568 442.94819641 C18.12847412 441.75774719 18.11687256 440.56729797 18.10491943 439.34077454 C18.13498791 430.02455721 19.56094855 421.32728249 21.51507568 412.26069641 C19.98137329 412.29211731 19.98137329 412.29211731 18.41668701 412.32417297 C14.56071423 412.39751492 10.70480067 412.44283185 6.84832764 412.48042297 C5.19099502 412.50032702 3.53373063 412.52746055 1.87664795 412.56245422 C-16.89863204 412.94851985 -31.19304522 408.76923538 -45.16070557 395.67866516 C-51.55423719 389.02724319 -55.42415558 381.89177413 -58.48492432 373.26069641 C-58.829104 372.50401672 -59.17328369 371.74733704 -59.52789307 370.96772766 C-62.15809821 363.52800453 -61.63108795 355.35541216 -61.62536621 347.57264709 C-61.62833733 346.3042937 -61.63130846 345.03594031 -61.63436961 343.72915196 C-61.64239633 340.22450057 -61.64422675 336.7198697 -61.64496708 333.2152102 C-61.64682517 329.42912265 -61.65437616 325.64304556 -61.66110229 321.85696411 C-61.67465432 313.58623619 -61.68070516 305.31551314 -61.68511295 297.04477596 C-61.68788012 291.87662847 -61.69211827 286.70848284 -61.69661713 281.54033661 C-61.70880464 267.21932467 -61.71910566 252.89831422 -61.72249222 238.57729721 C-61.72271178 237.66166982 -61.72293135 236.74604244 -61.72315757 235.80266877 C-61.72337585 234.88491025 -61.72359413 233.96715174 -61.72381902 233.02158237 C-61.72426248 231.16199668 -61.72470904 229.302411 -61.72515869 227.44282532 C-61.72538012 226.52041586 -61.72560155 225.5980064 -61.72582969 224.64764515 C-61.72977748 209.70239557 -61.74723324 194.75719475 -61.77051821 179.81196401 C-61.79425463 164.45252231 -61.80669507 149.09310506 -61.80786014 133.73364472 C-61.80877549 125.1160251 -61.81449288 116.49846907 -61.83267975 107.880867 C-61.84811153 100.5431554 -61.853183 93.20552705 -61.84494165 85.86780229 C-61.8410463 82.12755516 -61.8419099 78.38747553 -61.85599899 74.64724922 C-61.87116579 70.58360648 -61.86283871 66.52033796 -61.85241699 62.4566803 C-61.8604734 61.28700643 -61.8685298 60.11733257 -61.87683034 58.91221404 C-61.78239269 43.1154605 -56.76673487 27.74979909 -45.64117432 16.21772766 C-32.20771922 4.02540701 -17.78755171 -0.05399423 0 0 Z " fill="#0569BD" transform="translate(360.48492431640625,478.7393035888672)"/>
<path d="M0 0 C0.58313965 0.33 1.1662793 0.66 1.76708984 1 C36.79376365 21.07686201 61.32449365 54.89922205 72.25 93.5 C81.46660049 130.827232 75.98087901 170.61822849 57 204 C56.35160156 205.14726563 55.70320313 206.29453125 55.03515625 207.4765625 C50.65043791 214.89151193 45.64954292 221.50882996 40 228 C38.90171875 229.28197266 38.90171875 229.28197266 37.78125 230.58984375 C28.11362459 241.63612701 17.24295584 250.04318338 5 258 C4.00097656 258.65097656 3.00195312 259.30195312 1.97265625 259.97265625 C-6.8456179 265.40214061 -16.37018774 269.26599116 -26 273 C-27.06605469 273.41378906 -28.13210938 273.82757812 -29.23046875 274.25390625 C-65.99023402 286.9040279 -107.4030259 282.67908479 -142 266 C-156.20167511 258.90864709 -168.47057688 249.93186156 -180 239 C-180.474375 238.55817383 -180.94875 238.11634766 -181.4375 237.66113281 C-209.53414028 211.3754088 -224.678389 173.54325236 -226.28125 135.421875 C-227.2277516 98.02191596 -214.31499818 61.42374354 -190 33 C-189.54334961 32.46358887 -189.08669922 31.92717773 -188.61621094 31.37451172 C-182.36328564 24.10609714 -175.60947811 17.85426797 -168 12 C-167.13503906 11.28457031 -166.27007812 10.56914063 -165.37890625 9.83203125 C-119.36587671 -27.04365909 -50.32184283 -28.66735302 0 0 Z " fill="#0569BD" transform="translate(587,540)"/>
<path d="M0 0 C0.58313965 0.33 1.1662793 0.66 1.76708984 1 C36.79376365 21.07686201 61.32449365 54.89922205 72.25 93.5 C81.46660049 130.827232 75.98087901 170.61822849 57 204 C56.35160156 205.14726563 55.70320313 206.29453125 55.03515625 207.4765625 C50.65043791 214.89151193 45.64954292 221.50882996 40 228 C38.90171875 229.28197266 38.90171875 229.28197266 37.78125 230.58984375 C28.11362459 241.63612701 17.24295584 250.04318338 5 258 C4.00097656 258.65097656 3.00195312 259.30195312 1.97265625 259.97265625 C-6.8456179 265.40214061 -16.37018774 269.26599116 -26 273 C-27.06605469 273.41378906 -28.13210938 273.82757812 -29.23046875 274.25390625 C-65.99023402 286.9040279 -107.4030259 282.67908479 -142 266 C-156.20167511 258.90864709 -168.47057688 249.93186156 -180 239 C-180.474375 238.55817383 -180.94875 238.11634766 -181.4375 237.66113281 C-209.53414028 211.3754088 -224.678389 173.54325236 -226.28125 135.421875 C-227.2277516 98.02191596 -214.31499818 61.42374354 -190 33 C-189.54334961 32.46358887 -189.08669922 31.92717773 -188.61621094 31.37451172 C-182.36328564 24.10609714 -175.60947811 17.85426797 -168 12 C-167.13503906 11.28457031 -166.27007812 10.56914063 -165.37890625 9.83203125 C-119.36587671 -27.04365909 -50.32184283 -28.66735302 0 0 Z M-165.49511719 52.29248047 C-173.86599667 61.7905225 -179.84048969 72.49512418 -185 84 C-185.495 85.10214844 -185.99 86.20429687 -186.5 87.33984375 C-198.38036698 115.94465592 -196.01217452 149.02570889 -185.07275391 177.42480469 C-180.18071398 189.16837254 -173.50566732 199.55598504 -165 209 C-164.31679688 209.825 -163.63359375 210.65 -162.9296875 211.5 C-144.87572965 232.81832661 -116.6024527 246.72455444 -89 250 C-76.60153376 250.52658981 -64.1669815 250.62753246 -52 248 C-50.51693359 247.74283203 -50.51693359 247.74283203 -49.00390625 247.48046875 C-27.1160206 243.24498526 -7.62998629 231.58211497 8 216 C8.85722656 215.14921875 9.71445312 214.2984375 10.59765625 213.421875 C22.38484631 201.53885412 30.55179621 188.3544696 37 173 C37.40089844 172.05125 37.80179688 171.1025 38.21484375 170.125 C48.88028187 141.79115684 46.08722683 108.27203286 34 81 C29.30537053 71.0877642 22.90142938 62.46635382 16 54 C15.5570459 53.43667969 15.1140918 52.87335938 14.65771484 52.29296875 C13.48378108 50.82458437 12.24624913 49.40752843 11 48 C10.34 48 9.68 48 9 48 C8.67 47.01 8.34 46.02 8 45 C-9.90860337 27.68255441 -33.68225613 17.0483983 -58 13 C-59.08152344 12.81566406 -60.16304687 12.63132812 -61.27734375 12.44140625 C-101.31481386 7.69404621 -138.48622264 22.91630602 -165.49511719 52.29248047 Z " fill="#0E0E0E" transform="translate(587,540)"/>
<path d="M0 0 C1.1446875 0.474375 2.289375 0.94875 3.46875 1.4375 C19.19977144 8.55065752 31.25292886 21.13345388 37.96875 37.12890625 C44.32113387 54.81452043 43.05191415 71.98853629 35.50390625 89.08984375 C26.36170279 106.7806011 11.61344817 117.81866833 -7 124 C-8.07765625 124.36738281 -9.1553125 124.73476563 -10.265625 125.11328125 C-26.12800298 128.8797664 -43.60336189 126.12556932 -57.625 118.0625 C-73.99898452 107.95831419 -84.33611042 93.68063299 -89 75 C-89.19207031 74.25621094 -89.38414062 73.51242187 -89.58203125 72.74609375 C-92.53343961 53.35506499 -88.36173647 36.1669616 -76.75 20.375 C-58.54434124 -1.82798819 -27.1415895 -11.99943957 0 0 Z " fill="#0D0D0E" transform="translate(536,610)"/>
<path d="M0 0 C1.77206192 0.00015919 3.54412846 0.00585754 5.31616211 0.01586914 C6.24698105 0.01728409 7.17779999 0.01869904 8.13682556 0.02015686 C11.12241777 0.02577367 14.10793615 0.03832899 17.09350586 0.05102539 C19.11238499 0.05603823 21.13126529 0.06060151 23.15014648 0.06469727 C28.11046158 0.07574856 33.07072118 0.09302444 38.03100586 0.11352539 C50.57340187 32.62487163 62.71919722 65.28451424 74.78100586 97.97680664 C75.16287048 99.01153107 75.54473511 100.04625549 75.93817139 101.11233521 C77.74023919 105.99623162 79.54038454 110.88081952 81.33666992 115.7668457 C81.98964958 117.54008316 82.64296135 119.31319837 83.29663086 121.08618164 C83.6069928 121.92817108 83.91735474 122.77016052 84.23712158 123.63766479 C86.71486689 130.32822853 89.29058421 136.97852972 91.93682861 143.60426331 C94.03100586 148.90002858 94.03100586 148.90002858 94.03100586 151.11352539 C81.49100586 151.11352539 68.95100586 151.11352539 56.03100586 151.11352539 C53.69863395 145.28259562 51.39613778 139.51500458 49.28100586 133.61352539 C48.85303711 132.42758789 48.42506836 131.24165039 47.98413086 130.01977539 C47.03100586 127.11352539 47.03100586 127.11352539 47.03100586 125.11352539 C27.23100586 125.11352539 7.43100586 125.11352539 -12.96899414 125.11352539 C-13.29899414 126.76352539 -13.62899414 128.41352539 -13.96899414 130.11352539 C-14.48484678 131.81598902 -15.0291621 133.51002316 -15.59790039 135.19555664 C-15.87964111 136.03578369 -16.16138184 136.87601074 -16.45166016 137.74169922 C-16.80800537 138.79252686 -17.16435059 139.84335449 -17.53149414 140.92602539 C-18.66586914 144.28790039 -19.80024414 147.64977539 -20.96899414 151.11352539 C-33.50899414 151.11352539 -46.04899414 151.11352539 -58.96899414 151.11352539 C-55.59360923 139.86224236 -55.59360923 139.86224236 -53.83105469 134.98168945 C-53.4354837 133.88240112 -53.03991272 132.78311279 -52.63235474 131.6505127 C-52.00041702 129.90743835 -52.00041702 129.90743835 -51.35571289 128.12915039 C-50.90960663 126.89233521 -50.46350037 125.65552002 -50.00387573 124.38122559 C-48.805865 121.06051689 -47.60433745 117.74109159 -46.40190506 114.42198181 C-45.65180663 112.3505808 -44.90273738 110.27881055 -44.15402222 108.20690918 C-37.53434441 89.88859345 -30.87334075 71.58607645 -24.10919189 53.32054138 C-23.84378601 52.60382767 -23.57838013 51.88711395 -23.30493164 51.14868164 C-23.04162048 50.43772842 -22.77830933 49.72677521 -22.50701904 48.99427795 C-20.25854539 42.91486027 -18.03758529 36.82556463 -15.82055664 30.73461914 C-15.47208176 29.77812469 -15.12360687 28.82163025 -14.76457214 27.83615112 C-12.70523612 22.18390663 -12.70523612 22.18390663 -10.65139771 16.52966309 C-9.72190588 13.96689183 -8.78912686 11.40533894 -7.85571289 8.84399414 C-7.57728546 8.07317001 -7.29885803 7.30234589 -7.01199341 6.50816345 C-4.68324954 0.13395528 -4.68324954 0.13395528 0 0 Z " fill="#0E0E0E" transform="translate(443.968994140625,1044.886474609375)"/>
<path d="M0 0 C-2.43458271 8.41217604 -5.20143786 16.70386716 -8 25 C-12.9745141 25 -16.60713569 23.24271221 -21.07226562 21.30859375 C-29.28569173 17.86181309 -37.11675067 16.63866654 -46 16.625 C-46.83789062 16.60050781 -47.67578125 16.57601562 -48.5390625 16.55078125 C-54.1488662 16.52472953 -58.18582823 17.58934059 -63.1875 20.13818359 C-65 21 -65 21 -67 21 C-68.23768589 24.71305766 -68.54014726 28.14068697 -68 32 C-63.58964659 38.61553012 -54.05184576 40.78029418 -46.75 42.5625 C-45.915896 42.77519531 -45.08179199 42.98789062 -44.22241211 43.20703125 C-40.66257297 44.11085495 -37.09708372 44.9774452 -33.51953125 45.80859375 C-20.6053384 48.82816064 -8.58371955 53.28059031 -0.5625 64.375 C2.14129084 68.82389684 3.4666054 72.83577045 4 78 C4.10570312 78.97839844 4.21140625 79.95679688 4.3203125 80.96484375 C4.8947243 91.26679452 1.61174439 100.72828063 -4.6875 108.9375 C-15.26952133 119.87870221 -30.57490102 124.82833219 -45.43359375 125.3359375 C-47.76807477 125.36577748 -50.10283046 125.37819686 -52.4375 125.375 C-53.66581543 125.37338867 -54.89413086 125.37177734 -56.15966797 125.37011719 C-73.48598129 125.13906947 -89.48452014 121.74496225 -104 112 C-98.81321185 94.14350797 -98.81321185 94.14350797 -96 86 C-92.56160685 87.33476085 -89.25606075 88.83077602 -85.9375 90.4375 C-70.44688553 97.52429933 -52.2663046 99.64110006 -36 94 C-33.30646708 92.51146865 -32.67269762 91.7258776 -31 89 C-30.40164243 85.21040206 -30.31411739 83.09117688 -32.375 79.8125 C-39.71440947 74.74481251 -48.86653095 72.81561601 -57.375 70.5625 C-72.67921601 66.37593974 -88.66926512 61.92358365 -98 48 C-103.23283748 38.09166868 -103.31127062 27.92400516 -100.4375 17.25 C-98.35003942 11.15667317 -95.43209568 6.63911501 -91 2 C-90.46503906 1.43667969 -89.93007813 0.87335937 -89.37890625 0.29296875 C-67.56872797 -20.36655264 -23.56261286 -14.72663304 0 0 Z " fill="#0E0E0E" transform="translate(507,895)"/>
<path d="M0 0 C-1.66086912 5.56664924 -4.11071736 10.65786353 -6.625 15.875 C-7.04523438 16.75414062 -7.46546875 17.63328125 -7.8984375 18.5390625 C-8.9291692 20.69422878 -9.96309426 22.84779922 -11 25 C-15.1190968 23.43907911 -18.74994856 21.46912159 -22.5234375 19.21875 C-32.66427157 14.228308 -47.46402529 14.06240385 -58.1875 17.5 C-68.40632586 22.11288691 -74.02328291 29.70314324 -78 40 C-81.57045289 52.704679 -79.87045973 68.17979759 -73.57421875 79.58203125 C-68.44588241 87.78471909 -61.43502708 92.55912122 -52.1875 95.25 C-38.99081683 98.10542267 -27.02534657 94.54003395 -15.49609375 88.109375 C-13 87 -13 87 -10 88 C-8.6762519 90.55610156 -7.52990039 93.03519885 -6.4375 95.6875 C-6.13392578 96.39583984 -5.83035156 97.10417969 -5.51757812 97.83398438 C-3.82141433 101.83604405 -2.31277722 105.85266897 -1 110 C-17.82926547 122.65456396 -39.37678693 126.27579703 -59.9375 123.4609375 C-77.44394566 120.0275613 -92.93077579 110.9288884 -103 96 C-107.87192853 87.49452477 -111.16113585 78.63564814 -113 69 C-113.3403125 67.2984375 -113.3403125 67.2984375 -113.6875 65.5625 C-115.38597297 46.19990812 -112.07515896 27.36329675 -100.125 11.6875 C-91.03093142 0.9694906 -78.83882833 -7.67768201 -65 -11 C-64.24460937 -11.20238281 -63.48921875 -11.40476562 -62.7109375 -11.61328125 C-41.07883734 -16.53575605 -18.32285276 -12.33268936 0 0 Z " fill="#0E0E0E" transform="translate(648,896)"/>
<path d="M0 0 C12.21 0 24.42 0 37 0 C37 49.83 37 99.66 37 151 C24.79 151 12.58 151 0 151 C0 101.17 0 51.34 0 0 Z " fill="#0E0D0D" transform="translate(566,1045)"/>
<path d="M0 0 C1.31484375 -0.01740234 1.31484375 -0.01740234 2.65625 -0.03515625 C7.81760253 -0.01183689 11.59005478 0.40036714 16 3.375 C17.35137513 5.83643328 18.19861527 7.74794409 19 10.375 C19.5878125 12.169375 19.5878125 12.169375 20.1875 14 C21.69606353 20.64548243 22.74342867 28.42920674 19.1875 34.4375 C10.31919711 39.82803705 1.37559991 41.79684147 -9 40.375 C-13.61389697 38.12259689 -15.18684832 36.21007114 -17 31.375 C-19.032375 23.52495155 -21.15163577 13.38324436 -17.85546875 5.7109375 C-13.10702366 -0.26710495 -7.03968491 -0.0931723 0 0 Z " fill="#0669BC" transform="translate(516,644.625)"/>
<path d="M0 0 C4.5908602 -0.09212428 9.17848115 -0.17166281 13.76953125 -0.21972656 C15.32921244 -0.23977222 16.88881913 -0.26701657 18.44824219 -0.30175781 C20.69745314 -0.35059126 22.9456659 -0.37303815 25.1953125 -0.390625 C26.23161301 -0.42159271 26.23161301 -0.42159271 27.28884888 -0.45318604 C32.32425344 -0.45549025 35.10820218 0.87690722 39 4 C42.05225296 7.88468558 41 10.51616537 41 16 C40.01 21.28 39.02 26.56 38 32 C25.46 32 12.92 32 0 32 C0 21.44 0 10.88 0 0 Z " fill="#0668BA" transform="translate(752,803)"/>
<path d="M0 0 C4.57383962 -0.13836826 9.14032789 -0.25756919 13.71459961 -0.32958984 C15.26758517 -0.35962575 16.82040303 -0.400469 18.37280273 -0.45263672 C32.94301192 -0.92973506 32.94301192 -0.92973506 37.49609375 2.8984375 C41.09622607 7.35788378 41.20602469 9.53395692 41.3125 15.25 C41.36857422 17.20679688 41.36857422 17.20679688 41.42578125 19.203125 C40.9297831 23.62615435 39.86193977 25.62612892 37 29 C32.82932324 32.16475259 29.68071824 32.35474962 24.51171875 32.29296875 C22.58138794 32.28172974 22.58138794 32.28172974 20.61206055 32.27026367 C18.98695557 32.24295166 17.36185059 32.21563965 15.6875 32.1875 C7.9221875 32.0946875 7.9221875 32.0946875 0 32 C0 21.44 0 10.88 0 0 Z " fill="#0668BA" transform="translate(752,673)"/>
<path d="M0 0 C0.91652344 -0.00515625 1.83304687 -0.0103125 2.77734375 -0.015625 C3.72738281 -0.00015625 4.67742187 0.0153125 5.65625 0.03125 C6.60628906 0.01578125 7.55632813 0.0003125 8.53515625 -0.015625 C15.46519 0.02336253 15.46519 0.02336253 18.75 2.4375 C21.47591251 6.49608084 21.2855233 9.84099056 21.25390625 14.6015625 C21.2524913 15.39779022 21.25107635 16.19401794 21.24961853 17.01437378 C21.24401345 19.5617038 21.23146014 22.10894647 21.21875 24.65625 C21.21373565 26.38150915 21.20917263 28.10676967 21.20507812 29.83203125 C21.19489253 34.06516504 21.1753182 38.29810954 21.15625 42.53125 C11.25625 42.53125 1.35625 42.53125 -8.84375 42.53125 C-8.93563266 37.19184647 -9.01525073 31.85518956 -9.06347656 26.515625 C-9.08358061 24.6997752 -9.11086835 22.88399005 -9.14550781 21.06835938 C-9.19408039 18.45686895 -9.21673027 15.84623502 -9.234375 13.234375 C-9.25502014 12.42381653 -9.27566528 11.61325806 -9.29693604 10.77813721 C-9.2983472 7.22604265 -9.15685177 4.98784934 -7.12207031 2.02050781 C-4.50522697 0.30996941 -3.10465329 0.01680787 0 0 Z " fill="#0669BD" transform="translate(505.84375,411.46875)"/>
<path d="M0 0 C4.5908602 -0.09212428 9.17848115 -0.17166281 13.76953125 -0.21972656 C15.32921244 -0.23977222 16.88881913 -0.26701657 18.44824219 -0.30175781 C20.69745314 -0.35059126 22.9456659 -0.37303815 25.1953125 -0.390625 C26.23161301 -0.42159271 26.23161301 -0.42159271 27.28884888 -0.45318604 C32.32338185 -0.45548985 35.11195296 0.87187115 39 4 C41.50394225 7.36264291 41.29927838 10.7762979 41.3125 14.875 C41.32925781 16.06867187 41.34601562 17.26234375 41.36328125 18.4921875 C40.88869371 23.07476394 39.63022651 26.33535459 36.38110352 29.65307617 C33.03278243 31.547128 29.91099676 31.37303922 26.171875 31.29296875 C25.04836639 31.28660149 25.04836639 31.28660149 23.90216064 31.28010559 C21.51773625 31.26335746 19.13416747 31.22571397 16.75 31.1875 C15.13022057 31.17244809 13.51042785 31.15876057 11.890625 31.14648438 C7.9264912 31.11602228 3.96419946 31.05729839 0 31 C0 20.77 0 10.54 0 0 Z " fill="#0669BC" transform="translate(752,738)"/>
<path d="M0 0 C4.5908602 -0.09212428 9.17848115 -0.17166281 13.76953125 -0.21972656 C15.32921244 -0.23977222 16.88881913 -0.26701657 18.44824219 -0.30175781 C20.69745314 -0.35059126 22.9456659 -0.37303815 25.1953125 -0.390625 C26.23161301 -0.42159271 26.23161301 -0.42159271 27.28884888 -0.45318604 C32.31977292 -0.4554882 35.13418185 0.84003169 39 4 C42.13160881 9.4486373 41.61327968 15.91955635 41 22 C39.88258624 25.43863925 38.37358645 28.04010073 35.33496094 30.16357422 C32.03436166 31.34590934 28.84921236 31.24622814 25.390625 31.1953125 C24.66381531 31.1924826 23.93700562 31.18965271 23.18817139 31.18673706 C20.87527749 31.17557523 18.56277612 31.15047851 16.25 31.125 C14.67839102 31.11496501 13.10677596 31.10584006 11.53515625 31.09765625 C7.68983264 31.07735359 3.84535377 31.03819888 0 31 C0 20.77 0 10.54 0 0 Z " fill="#0669BC" transform="translate(752,609)"/>
<path d="M0 0 C12.21 0 24.42 0 37 0 C39.74983546 8.24950637 42.27217582 18.69825642 38.6875 27.0625 C37 29 37 29 34 31 C31.38590855 31.17145815 28.88130326 31.23233432 26.26953125 31.1953125 C25.51911057 31.1924826 24.76868988 31.18965271 23.99552917 31.18673706 C21.60102325 31.17555062 19.20689269 31.15044928 16.8125 31.125 C15.18815645 31.11496819 13.56380703 31.10584269 11.93945312 31.09765625 C7.9593748 31.0773186 3.98010709 31.03816832 0 31 C0 20.77 0 10.54 0 0 Z " fill="#0667BA" transform="translate(752,544)"/>
<path d="M0 0 C0.7425 -0.01160156 1.485 -0.02320313 2.25 -0.03515625 C7.08239063 -0.00954287 10.45769423 0.69331985 14.625 3.375 C17.15061648 7.16342473 16.87891573 10.16033329 16.8203125 14.54296875 C16.8174826 15.33778152 16.81465271 16.1325943 16.81173706 16.95149231 C16.80054705 19.48864838 16.77544491 22.02545072 16.75 24.5625 C16.73996866 26.28319802 16.73084308 28.00390159 16.72265625 29.72460938 C16.70231355 33.94165199 16.66316353 38.1579303 16.625 42.375 C7.055 42.375 -2.515 42.375 -12.375 42.375 C-12.46679583 36.87490007 -12.54644059 31.37745276 -12.59472656 25.87719727 C-12.61485207 24.00601196 -12.64215549 22.13488961 -12.67675781 20.26391602 C-12.72523581 17.57552568 -12.74795872 14.88796612 -12.765625 12.19921875 C-12.78627014 11.36162521 -12.80691528 10.52403168 -12.82818604 9.66105652 C-12.83041844 3.89329291 -12.83041844 3.89329291 -10.59423828 1.34838867 C-7.13537377 -0.16871725 -3.70521142 -0.05729708 0 0 Z " fill="#066ABE" transform="translate(445.375,411.625)"/>
<path d="M0 0 C1.29550781 -0.04898437 2.59101562 -0.09796875 3.92578125 -0.1484375 C8.32014396 0.46303145 11.00902009 1.87495392 13.6875 5.375 C14.48643463 8.25625951 14.39088542 10.98544599 14.2734375 13.95703125 C14.26494781 14.77121017 14.25645813 15.5853891 14.24771118 16.42424011 C14.21424176 19.01336525 14.1389836 21.59932381 14.0625 24.1875 C14.03239164 25.9472205 14.00501734 27.70699004 13.98046875 29.46679688 C13.91957876 33.77171884 13.8021911 38.06983583 13.6875 42.375 C4.1175 42.375 -5.4525 42.375 -15.3125 42.375 C-15.42749626 37.33816374 -15.5269576 32.30590361 -15.5871582 27.26879883 C-15.61225714 25.55672755 -15.64634429 23.84476296 -15.68969727 22.13305664 C-15.75055739 19.66786355 -15.77875432 17.20409015 -15.80078125 14.73828125 C-15.82658768 13.97663162 -15.8523941 13.21498199 -15.87898254 12.43025208 C-15.88109027 8.40981236 -15.49527794 6.60592451 -12.96948242 3.41479492 C-8.72676196 0.15761129 -5.23634719 0.13466373 0 0 Z " fill="#066ABD" transform="translate(577.3125,411.625)"/>
<path d="M0 0 C1.51815699 0.00015911 3.0363194 0.00585313 4.55444336 0.01586914 C5.35208603 0.01728409 6.1497287 0.01869904 6.97154236 0.02015686 C9.52916146 0.02577223 12.08669429 0.03832727 14.64428711 0.05102539 C16.37410356 0.05603841 18.10392137 0.06060166 19.83374023 0.06469727 C24.0831495 0.07489748 28.33237127 0.09446971 32.58178711 0.11352539 C32.58178711 10.34352539 32.58178711 20.57352539 32.58178711 31.11352539 C28.1502861 31.2519297 23.72638123 31.37111349 19.29443359 31.44311523 C17.78994239 31.47314371 16.28562414 31.51398145 14.78173828 31.56616211 C0.6868959 32.04268645 0.6868959 32.04268645 -3.91040039 28.51196289 C-6.02741099 26.1555595 -6.44099827 25.01388363 -7.17211914 21.81665039 C-7.10895508 20.67711914 -7.04579102 19.53758789 -6.98071289 18.36352539 C-6.91883789 17.14793945 -6.85696289 15.93235352 -6.79321289 14.67993164 C-5.2680463 0.1749619 -5.2680463 0.1749619 0 0 Z " fill="#0668BB" transform="translate(238.418212890625,543.886474609375)"/>
<path d="M0 0 C1.09445938 0.00212242 1.09445938 0.00212242 2.21102905 0.00428772 C4.54437335 0.00989094 6.87762214 0.0224439 9.2109375 0.03515625 C10.79166528 0.04017084 12.37239457 0.04473382 13.953125 0.04882812 C17.83079568 0.05901108 21.70825952 0.0785857 25.5859375 0.09765625 C25.5859375 10.32765625 25.5859375 20.55765625 25.5859375 31.09765625 C20.97552048 31.23573862 16.37231563 31.35502868 11.76147461 31.42724609 C10.19482071 31.45735226 8.62833447 31.49824855 7.06225586 31.55029297 C4.80540607 31.62339512 2.55078954 31.65716926 0.29296875 31.68359375 C-0.40305954 31.71456146 -1.09908783 31.74552917 -1.81620789 31.7774353 C-4.59833001 31.77934475 -6.76947924 31.62440402 -8.96841431 29.82745361 C-13.24993142 24.87436163 -13.64175499 20.49841203 -13.7265625 14.22265625 C-13.75556641 13.51496094 -13.78457031 12.80726563 -13.81445312 12.078125 C-13.85947786 8.35838913 -13.54970103 6.30852523 -11.51953125 3.15234375 C-7.88216998 -0.39728896 -4.83321842 -0.03506001 0 0 Z " fill="#066ABE" transform="translate(245.4140625,738.90234375)"/>
<path d="M0 0 C0.70744354 0.00141495 1.41488708 0.0028299 2.14376831 0.00428772 C4.40578419 0.00989025 6.66770148 0.02244307 8.9296875 0.03515625 C10.46223815 0.04017093 11.99479036 0.04473389 13.52734375 0.04882812 C17.28652697 0.05901009 21.04549674 0.07858482 24.8046875 0.09765625 C24.8046875 10.32765625 24.8046875 20.55765625 24.8046875 31.09765625 C20.1949609 31.21270766 15.59024538 31.31214398 10.98022461 31.37231445 C9.41364636 31.39740172 7.84718451 31.4314804 6.28100586 31.47485352 C4.02428441 31.53576851 1.76911456 31.56392124 -0.48828125 31.5859375 C-1.18430954 31.61174393 -1.88033783 31.63755035 -2.59745789 31.66413879 C-6.46777385 31.66635238 -8.05833236 31.20760008 -11.11450195 28.75463867 C-14.4663516 24.47466921 -14.4659194 20.5190468 -14.5703125 15.28515625 C-14.60769531 14.58583984 -14.64507812 13.88652344 -14.68359375 13.16601562 C-14.75085698 9.17132698 -14.3569497 6.79821346 -11.796875 3.6484375 C-7.86835395 -0.20340071 -5.25151857 -0.03930261 0 0 Z " fill="#066ABE" transform="translate(246.1953125,673.90234375)"/>
<path d="M0 0 C0.70744354 0.00141495 1.41488708 0.0028299 2.14376831 0.00428772 C4.40578419 0.00989025 6.66770148 0.02244307 8.9296875 0.03515625 C10.46223815 0.04017093 11.99479036 0.04473389 13.52734375 0.04882812 C17.28652697 0.05901009 21.04549674 0.07858482 24.8046875 0.09765625 C24.8046875 10.32765625 24.8046875 20.55765625 24.8046875 31.09765625 C20.33836348 31.16668358 15.87390395 31.22636559 11.4074707 31.26245117 C9.88950312 31.27749978 8.37157874 31.29794363 6.85375977 31.32397461 C4.66672073 31.36053278 2.48025854 31.37742148 0.29296875 31.390625 C-1.67869263 31.41419067 -1.67869263 31.41419067 -3.69018555 31.43823242 C-7.40690166 31.07709716 -9.2563844 30.34974748 -12.1953125 28.09765625 C-14.57547561 24.03908026 -14.59438022 19.75921869 -14.6328125 15.16015625 C-14.68211914 14.1247168 -14.68211914 14.1247168 -14.73242188 13.06835938 C-14.77344952 9.13343493 -14.23503001 6.66372787 -11.79296875 3.65625 C-7.87004931 -0.20767817 -5.25425597 -0.03932309 0 0 Z " fill="#0669BD" transform="translate(246.1953125,608.90234375)"/>
<path d="M0 0 C0 13.86 0 27.72 0 42 C-9.24 42 -18.48 42 -28 42 C-28.09200081 37.10606822 -28.1715799 32.21515358 -28.21972656 27.32104492 C-28.23980207 25.65752987 -28.26706876 23.99408504 -28.30175781 22.33081055 C-28.35045766 19.9352076 -28.37300856 17.54054008 -28.390625 15.14453125 C-28.41127014 14.4047554 -28.43191528 13.66497955 -28.45318604 12.90278625 C-28.45475317 9.27004166 -28.13244666 7.20794689 -26.16308594 4.1159668 C-17.98687378 -3.88214051 -16.09520987 0 0 0 Z " fill="#0668BA" transform="translate(653,412)"/>
<path d="M0 0 C1.09445938 0.00212242 1.09445938 0.00212242 2.21102905 0.00428772 C4.54437335 0.00989094 6.87762214 0.0224439 9.2109375 0.03515625 C10.79166528 0.04017084 12.37239457 0.04473382 13.953125 0.04882812 C17.83079568 0.05901108 21.70825952 0.0785857 25.5859375 0.09765625 C25.5859375 9.99765625 25.5859375 19.89765625 25.5859375 30.09765625 C13.3759375 30.09765625 1.1659375 30.09765625 -11.4140625 30.09765625 C-14.72358631 6.93098958 -14.72358631 6.93098958 -11.5390625 2.47265625 C-7.61090759 -0.06909104 -4.5702456 -0.03315241 0 0 Z " fill="#066ABE" transform="translate(245.4140625,803.90234375)"/>
<path d="M0 0 C19.42688239 0 19.42688239 0 25.79418945 4.17700195 C27.81211509 7.22779173 27.36382051 10.63554176 27.29296875 14.16796875 C27.28872391 14.96278152 27.28447906 15.7575943 27.28010559 16.57649231 C27.2633193 19.11384021 27.22566824 21.65039238 27.1875 24.1875 C27.17245305 25.90819165 27.15876466 27.62889576 27.14648438 29.34960938 C27.1159681 33.56695906 27.05724992 37.78258943 27 42 C18.09 42 9.18 42 0 42 C0 28.14 0 14.28 0 0 Z " fill="#066ABE" transform="translate(371,412)"/>
<path d="M0 0 C3.07787229 3.53465899 4.47136111 7.52288242 5.99609375 11.87890625 C6.2709108 12.64621567 6.54572784 13.41352509 6.82887268 14.2040863 C7.70493149 16.65462469 8.57139906 19.10842674 9.4375 21.5625 C10.01563312 23.185776 10.59440309 24.80882533 11.17382812 26.43164062 C12.28704244 29.5506186 13.3948823 32.67142966 14.49951172 35.79345703 C16.06277107 40.19947881 17.69258687 44.57967245 19.35571289 48.94897461 C20 51 20 51 20 54 C7.13 54 -5.74 54 -19 54 C-17.220168 47.47394934 -15.47941282 41.14508728 -13.22265625 34.8046875 C-12.97003525 34.08693146 -12.71741425 33.36917542 -12.45713806 32.62966919 C-11.92882751 31.13182975 -11.39859249 29.63466774 -10.86645508 28.13818359 C-10.06216014 25.87404327 -9.26604471 23.60714254 -8.47070312 21.33984375 C-5.91226428 14.08750573 -3.27784276 6.96640317 0 0 Z " fill="#0668B9" transform="translate(460,1085)"/>
<path d="M0 0 C2 2 2 2 2.125 5.125 C2.08375 6.07375 2.0425 7.0225 2 8 C1.34 8 0.68 8 0 8 C-1.6446674 10.46326712 -1.6446674 10.46326712 -3 13 C-4 11 -4 11 -3.22265625 8.3984375 C-2.83980469 7.40070313 -2.45695312 6.40296875 -2.0625 5.375 C-1.68222656 4.37210938 -1.30195313 3.36921875 -0.91015625 2.3359375 C-0.60980469 1.56507812 -0.30945313 0.79421875 0 0 Z " fill="#0C141F" transform="translate(400,1153)"/>
<path d="M0 0 C0.33 0 0.66 0 1 0 C1.05416188 1.60379341 1.09286638 3.20811406 1.125 4.8125 C1.14820313 5.70582031 1.17140625 6.59914063 1.1953125 7.51953125 C1 10 1 10 -1 13 C-1.66 13 -2.32 13 -3 13 C-2.01 8.71 -1.02 4.42 0 0 Z " fill="#0A1724" transform="translate(723,843)"/>
<path d="M0 0 C0.33 1.32 0.66 2.64 1 4 C-1.4375 6.75 -1.4375 6.75 -4 9 C-4.66 8.67 -5.32 8.34 -6 8 C-4.02 5.36 -2.04 2.72 0 0 Z " fill="#0B141F" transform="translate(461,628)"/>
<path d="M0 0 C0.66 0.99 1.32 1.98 2 3 C0.75 4.5625 0.75 4.5625 -1 6 C-3.1875 5.6875 -3.1875 5.6875 -5 5 C-3.35 3.35 -1.7 1.7 0 0 Z " fill="#0C1520" transform="translate(476,984)"/>
<path d="M0 0 C0.99 0.33 1.98 0.66 3 1 C0.03 3.475 0.03 3.475 -3 6 C-3.66 5.67 -4.32 5.34 -5 5 C-3.35 3.35 -1.7 1.7 0 0 Z " fill="#0961AA" transform="translate(317,493)"/>
</svg>
